<svg class="svg-icon"  style="width: 1em;height: 1em;vertical-align: middle;fill: #918787;overflow: hidden;" viewBox="0 0 1024 1024" version="1.1" xmlns="http://www.w3.org/2000/svg"><path d="M512.033697 273.977228c-75.503236 0-136.539324-61.305662-136.539324-137.011078C375.494373 61.328127 436.530461 0 512.033697 0c75.32352 0 136.427001 61.305662 136.427001 136.96615 0 75.682952-61.125946 137.011079-136.427001 137.011078zM512.056161 648.977382c-75.503236 0-136.561788-61.305662-136.561788-137.011079 0-75.615558 61.036088-137.011079 136.539324-137.011078 75.32352 0 136.427001 61.373056 136.47193 137.011078-0.044929 75.750346-61.19334 137.011079-136.449466 137.011079zM512.056161 1024c-75.503236 0-136.561788-61.305662-136.561788-137.011079s61.036088-136.988614 136.539324-136.988614c75.32352-0.044929 136.427001 61.305662 136.427001 136.988614s-61.148411 137.011079-136.404537 137.011079z"  /></svg>